<?xml version="1.0" standalone="no"?><!DOCTYPE svg PUBLIC "-//W3C//DTD SVG 1.1//EN" "http://www.w3.org/Graphics/SVG/1.1/DTD/svg11.dtd"><svg t="1778848827597" class="icon" viewBox="0 0 1024 1024" version="1.1" xmlns="http://www.w3.org/2000/svg" p-id="1074" xmlns:xlink="http://www.w3.org/1999/xlink" width="200" height="200"><path d="M11.35544699 19.49550365m99.85550412 0l791.82245737 0q99.85550412 0 99.85550411 99.85550412l0 791.82245735q0 99.85550412-99.85550411 99.85550413l-791.82245737 0q-99.85550412 0-99.85550412-99.85550413l0-791.82245735q0-99.85550412 99.85550412-99.85550412Z" fill="#1472FF" p-id="1075"></path><path d="M567.92405333 232.00690631H236.3565549a37.28270222 37.28270222 0 0 0 0 74.56540444h128.43890915v308.26580955a37.28270222 37.28270222 0 1 0 74.56540445 0V306.57231075H567.92405333a37.28270222 37.28270222 0 1 0 0-74.56540444zM774.84305067 798.57970442H228.58932528a37.28270222 37.28270222 0 1 1 0-74.56540445h546.25372539a37.28270222 37.28270222 0 0 1 0 74.56540445zM774.84305067 633.35519573h-194.92639479a37.28270222 37.28270222 0 0 1 0-74.56540444h194.92639479a37.28270222 37.28270222 0 0 1 0 74.56540444zM774.84305067 473.10171402h-105.07508244a37.28270222 37.28270222 0 0 1 0-74.56540445h105.07508244a37.28270222 37.28270222 0 0 1 0 74.56540445z" fill="#FFFFFF" p-id="1076"></path></svg>